<svg width="200" height="200" viewBox="0 0 200 200" xmlns="http://www.w3.org/2000/svg">
  <!-- Outer Circle -->
  <circle cx="100" cy="100" r="90" fill="none" stroke="#064e3b" stroke-width="3"/>
  <circle cx="100" cy="100" r="85" fill="none" stroke="#064e3b" stroke-width="2"/>
  
  <!-- Play Button Triangle -->
  <path d="M 85 70 L 85 130 L 125 100 Z" fill="none" stroke="#064e3b" stroke-width="3" stroke-linejoin="round"/>
  
  <!-- Left Leaf -->
  <g transform="translate(60, 90)">
    <path d="M 0 0 Q -10 -15 -5 -30 Q 0 -35 5 -30 Q 10 -15 0 0" fill="#10b981" stroke="#064e3b" stroke-width="2"/>
    <path d="M 0 0 Q -8 -8 -4 -15" fill="none" stroke="#064e3b" stroke-width="1"/>
    <path d="M 0 0 Q -6 -18 -2 -25" fill="none" stroke="#064e3b" stroke-width="1"/>
  </g>
  
  <!-- Right Leaf -->
  <g transform="translate(140, 90)">
    <path d="M 0 0 Q 10 -15 5 -30 Q 0 -35 -5 -30 Q -10 -15 0 0" fill="#10b981" stroke="#064e3b" stroke-width="2"/>
    <path d="M 0 0 Q 8 -8 4 -15" fill="none" stroke="#064e3b" stroke-width="1"/>
    <path d="M 0 0 Q 6 -18 2 -25" fill="none" stroke="#064e3b" stroke-width="1"/>
  </g>
  
  <!-- Bottom Leaf -->
  <g transform="translate(100, 125)">
    <path d="M 0 0 Q -15 10 -30 5 Q -35 0 -30 -5 Q -15 -10 0 0" fill="#10b981" stroke="#064e3b" stroke-width="2"/>
    <path d="M 0 0 Q -8 8 -15 4" fill="none" stroke="#064e3b" stroke-width="1"/>
    <path d="M 0 0 Q -18 6 -25 2" fill="none" stroke="#064e3b" stroke-width="1"/>
  </g>
  
  <!-- Text: PREDORA.AI -->
  <text x="100" y="35" font-family="Arial, sans-serif" font-size="22" font-weight="bold" text-anchor="middle" fill="#064e3b" letter-spacing="2">
    PREDORA.AI
  </text>
  
  <!-- Text: NATURE'S WAY -->
  <text x="100" y="175" font-family="Arial, sans-serif" font-size="16" font-weight="bold" text-anchor="middle" fill="#064e3b" letter-spacing="1.5">
    NATURE'S WAY
  </text>
</svg>
